<svg xmlns="http://www.w3.org/2000/svg" width="120" height="211.415" viewBox="0 0 120 211.415">
  <g id="Logo" transform="translate(-356 -407.537)">
    <path id="Icon" d="M3685.654,999.514a1.779,1.779,0,0,1-1.77-1.781V913.574a5.084,5.084,0,0,1,2.733-4.514l54.9-28.66a5.128,5.128,0,0,1,4.713,0l54.905,28.66a5.074,5.074,0,0,1,2.746,4.514v84.159a1.792,1.792,0,0,1-1.784,1.781Zm88.169-25.793a.359.359,0,0,1,.358.371v21.253h15.127c0-.042.013-.092.013-.147V939.039h-93.083V995.2c0,.055.015.105.015.147h17.662V974.092a.362.362,0,0,1,.371-.371h5.966v8.288a3.55,3.55,0,0,0,3.539,3.54h8.725a3.54,3.54,0,0,0,3.539-3.54v-8.288h5.543a.357.357,0,0,1,.356.371v21.253h4.187V974.092a.36.36,0,0,1,.371-.371h5.964v8.288a3.549,3.549,0,0,0,3.539,3.54h8.725a3.538,3.538,0,0,0,3.537-3.54v-8.288Zm-77.583-38.642h93.081V928.2h-93.081Zm0-14.019v3.181h93.083V921.06a4.317,4.317,0,0,0-4.316-4.316h-84.448A4.321,4.321,0,0,0,3696.239,921.06Zm39.75-22.984a7.894,7.894,0,1,0,7.893-7.881A7.9,7.9,0,0,0,3735.989,898.076Zm-11.774,83.515v-7.87h7.883v7.87Zm32.221,0v-7.868h7.881v7.868Zm-25.076-11.828a1.7,1.7,0,0,1-1.7-1.7V948.5a.37.37,0,0,1,.369-.369H3736v8.293a3.544,3.544,0,0,0,3.536,3.535h8.725a3.536,3.536,0,0,0,3.539-3.535v-8.293h5.546a.356.356,0,0,1,.353.369v19.554a1.7,1.7,0,0,1-1.7,1.7Zm8.6-13.756v-7.868h7.882V956Z" transform="translate(-3327.884 -472.29)" fill="#02364c"/>
    <text id="MORE" transform="translate(356 563.952)" fill="#02364c" font-size="29" font-family="Helvetica" letter-spacing="-0.04em"><tspan x="0" y="0">MORE</tspan></text>
    <text id="WMS" transform="translate(356 607.952)" fill="#02364c" font-size="46" font-family="Helvetica" letter-spacing="-0.06em"><tspan x="0" y="0">WMS</tspan></text>
  </g>
</svg>
